# File created by Blade
# Date/Time:  Fri Jan 16 17:19:08 2015
# Frame Rate: 120.000 fps
#------------------------------------------------------
:FULLY-SPECIFIED
:DEGREES
4081
root -5.355652 35.287646 -9.878351 -0.364087 -3.666757 -5.745692
Spine -3.541518 -1.322560 10.066937
Head 4.211539 6.064542 -6.994166
LeftShoulder -24.822688 14.532770 5.036796
LeftArm 23.698075 -54.522251 -29.069541
LeftForeArm 32.153895 -0.000000 4.803699
LeftHand -7.283871 0.000000 -6.775072
LeftHandThumb1 -26.253704 0.000000 33.147579
RightShoulder -10.803809 16.306661 -23.465601
RightArm -2.970090 17.468228 12.644024
RightForeArm -36.790404 -0.000000 16.599415
RightHand -7.940841 -0.000000 14.613397
RightHandThumb1 -24.326973 -0.000000 -32.862282
LeftUpLeg 9.876249 12.378499 6.376245
LeftLeg -8.790332 -0.000000 0.000000
LeftFoot -15.384878 28.166928 -8.552455
LeftToeBase 22.497694 -0.000000 -0.000000
RightUpLeg 6.844431 -4.552268 4.207525
RightLeg -3.981478 -0.000000 0.000000
RightFoot -4.753905 -29.435959 4.366464
RightToeBase 13.733746 -0.000000 -0.000000
4082
root -5.355117 35.287119 -9.876162 -0.370298 -3.665856 -5.744671
Spine -3.523566 -1.318038 10.051200
Head 4.198999 6.072197 -6.961721
LeftShoulder -24.862287 14.536008 5.021092
LeftArm 23.725889 -54.553178 -29.070916
LeftForeArm 32.130424 -0.000000 4.810955
LeftHand -7.320368 -0.000000 -6.754630
LeftHandThumb1 -26.253704 0.000000 33.147579
RightShoulder -10.806791 16.329812 -23.476458
RightArm -2.977729 17.426562 12.652155
RightForeArm -36.813103 -0.000000 16.623190
RightHand -8.047342 -0.000000 14.551889
RightHandThumb1 -24.326973 -0.000000 -32.862282
LeftUpLeg 9.886584 12.365936 6.380920
LeftLeg -8.785575 -0.000000 0.000000
LeftFoot -15.330274 28.171125 -8.437669
LeftToeBase 22.489340 -0.000000 -0.000000
RightUpLeg 6.855650 -4.573944 4.205847
RightLeg -3.988994 -0.000000 0.000000
RightFoot -4.745304 -29.432306 4.353040
RightToeBase 13.727439 -0.000000 -0.000000
4083
root -5.354300 35.286890 -9.873240 -0.373147 -3.662581 -5.744264
Spine -3.514931 -1.316296 10.041760
Head 4.192530 6.067610 -6.947543
LeftShoulder -24.898227 14.554523 4.988812
LeftArm 23.741306 -54.582520 -29.045279
LeftForeArm 32.099969 -0.000000 4.801546
LeftHand -7.271838 -0.000000 -6.751302
LeftHandThumb1 -26.253704 0.000000 33.147579
RightShoulder -10.807740 16.311740 -23.475164
RightArm -2.955012 17.392168 12.649670
RightForeArm -36.792848 -0.000000 16.598377
RightHand -8.037899 -0.000000 14.506106
RightHandThumb1 -24.326973 -0.000000 -32.862282
LeftUpLeg 9.890695 12.375612 6.382437
LeftLeg -8.779401 -0.000000 0.000000
LeftFoot -15.331355 28.154018 -8.434501
LeftToeBase 22.463718 -0.000000 -0.000000
RightUpLeg 6.868813 -4.575831 4.204738
RightLeg -4.002120 -0.000000 0.000000
RightFoot -4.734249 -29.432883 4.344772
RightToeBase 13.735890 -0.000000 -0.000000
4084
root -5.354404 35.286587 -9.871664 -0.375059 -3.654022 -5.742201
Spine -3.505557 -1.302514 10.025265
Head 4.194012 6.048602 -6.920696
LeftShoulder -24.884665 14.544712 4.975501
LeftArm 23.657798 -54.598064 -28.933092
LeftForeArm 32.110239 0.000000 4.800337
LeftHand -7.240608 0.000000 -6.629242
LeftHandThumb1 -26.253704 0.000000 33.147579
RightShoulder -10.825406 16.303767 -23.468477
RightArm -2.942130 17.393583 12.640218
RightForeArm -36.807786 0.000000 16.617372
RightHand -8.017764 -0.000000 14.608915
RightHandThumb1 -24.326973 -0.000000 -32.862282
LeftUpLeg 9.897025 12.371432 6.381567
LeftLeg -8.787391 -0.000000 0.000000
LeftFoot -15.324867 28.151395 -8.423894
LeftToeBase 22.486695 -0.000000 -0.000000
RightUpLeg 6.879964 -4.590163 4.201984
RightLeg -4.015815 -0.000000 0.000000
RightFoot -4.733885 -29.438453 4.327767
RightToeBase 13.778856 -0.000000 -0.000000
4085
root -5.353455 35.286281 -9.869705 -0.379514 -3.646844 -5.742182
Spine -3.488692 -1.305719 10.021165
Head 4.181432 6.033904 -6.915755
LeftShoulder -24.928890 14.544838 4.953133
LeftArm 23.686200 -54.595619 -28.932862
LeftForeArm 31.979067 -0.000000 4.807543
LeftHand -7.260145 -0.000000 -6.698660
LeftHandThumb1 -26.253704 0.000000 33.147579
RightShoulder -10.827858 16.311510 -23.477657
RightArm -2.941594 17.388357 12.638220
RightForeArm -36.830443 -0.000000 16.648673
RightHand -8.059381 0.000000 14.619768
RightHandThumb1 -24.326973 -0.000000 -32.862282
LeftUpLeg 9.903457 12.362802 6.379099
LeftLeg -8.789153 -0.000000 0.000000
LeftFoot -15.332877 28.157085 -8.423300
LeftToeBase 22.486647 -0.000000 -0.000000
RightUpLeg 6.891480 -4.590931 4.200493
RightLeg -4.022171 -0.000000 0.000000
RightFoot -4.729750 -29.451627 4.331785
RightToeBase 13.755380 -0.000000 -0.000000
4086
root -5.353410 35.285130 -9.865349 -0.401403 -3.663903 -5.753965
Spine -3.451818 -1.289574 10.027370
Head 4.173810 6.028883 -6.898223
LeftShoulder -24.964715 14.562305 4.933538
LeftArm 23.720365 -54.644544 -28.955538
LeftForeArm 31.979736 -0.000000 4.835676
LeftHand -7.316340 -0.000000 -6.658820
LeftHandThumb1 -26.253704 0.000000 33.147579
RightShoulder -10.816314 16.304851 -23.480785
RightArm -2.953784 17.414806 12.626590
RightForeArm -36.832494 -0.000000 16.678894
RightHand -8.077224 0.000000 14.621304
RightHandThumb1 -24.326973 -0.000000 -32.862282
LeftUpLeg 9.943880 12.402025 6.400318
LeftLeg -8.802084 -0.000000 0.000000
LeftFoot -15.333653 28.144979 -8.409632
LeftToeBase 22.463385 -0.000000 -0.000000
RightUpLeg 6.925764 -4.577405 4.208941
RightLeg -4.031976 -0.000000 0.000000
RightFoot -4.733777 -29.442244 4.331660
RightToeBase 13.755335 -0.000000 -0.000000
4087
root -5.353012 35.284486 -9.863790 -0.403947 -3.660456 -5.755008
Spine -3.437519 -1.276588 10.017452
Head 4.172665 6.004868 -6.880372
LeftShoulder -24.976073 14.578212 4.920138
LeftArm 23.693365 -54.609811 -28.896207
LeftForeArm 31.928749 -0.000000 4.831238
LeftHand -7.332964 -0.000000 -6.583949
LeftHandThumb1 -26.253704 0.000000 33.147579
RightShoulder -10.820445 16.307775 -23.489998
RightArm -2.973438 17.411257 12.622324
RightForeArm -36.840395 -0.000000 16.728185
RightHand -8.131826 -0.000000 14.624353
RightHandThumb1 -24.326973 -0.000000 -32.862282
LeftUpLeg 9.949849 12.401363 6.401537
LeftLeg -8.805182 -0.000000 0.000000
LeftFoot -15.336836 28.142756 -8.402198
LeftToeBase 22.491735 -0.000000 -0.000000
RightUpLeg 6.937649 -4.560295 4.209954
RightLeg -4.047240 -0.000000 0.000000
RightFoot -4.723988 -29.462578 4.328680
RightToeBase 13.756946 -0.000000 -0.000000
4088
root -5.353803 35.283814 -9.862716 -0.399534 -3.661691 -5.761615
Spine -3.428293 -1.259980 10.011150
Head 4.164344 6.004394 -6.852687
LeftShoulder -24.994568 14.599544 4.902252
LeftArm 23.696370 -54.624673 -28.871369
LeftForeArm 32.048886 0.000000 4.861379
LeftHand -7.331346 -0.000000 -6.733655
LeftHandThumb1 -26.253704 0.000000 33.147579
RightShoulder -10.830923 16.296503 -23.498371
RightArm -2.976632 17.406817 12.627688
RightForeArm -36.857422 -0.000000 16.767624
RightHand -8.179502 -0.000000 14.621596
RightHandThumb1 -24.326973 -0.000000 -32.862282
LeftUpLeg 9.949199 12.423708 6.412042
LeftLeg -8.808263 -0.000000 0.000000
LeftFoot -15.358294 28.114599 -8.417188
LeftToeBase 22.508910 -0.000000 -0.000000
RightUpLeg 6.938304 -4.545473 4.220658
RightLeg -4.055637 -0.000000 0.000000
RightFoot -4.706797 -29.491088 4.295646
RightToeBase 13.738884 -0.000000 -0.000000
4089
root -5.353038 35.283357 -9.861532 -0.408131 -3.663242 -5.752488
Spine -3.402567 -1.248982 9.984930
Head 4.158290 5.987665 -6.819452
LeftShoulder -25.018193 14.615955 4.877722
LeftArm 23.712202 -54.640293 -28.840940
LeftForeArm 32.140855 -0.000000 4.868589
LeftHand -7.335513 -0.000000 -6.639620
LeftHandThumb1 -26.253704 0.000000 33.147579
RightShoulder -10.823576 16.306074 -23.499387
RightArm -3.010064 17.365165 12.620143
RightForeArm -36.855299 -0.000000 16.824317
RightHand -8.277930 -0.000000 14.646862
RightHandThumb1 -24.326973 -0.000000 -32.862282
LeftUpLeg 9.961356 12.414632 6.402108
LeftLeg -8.809156 -0.000000 0.000000
LeftFoot -15.345825 28.132288 -8.388559
LeftToeBase 22.504331 -0.000000 -0.000000
RightUpLeg 6.951911 -4.548830 4.208072
RightLeg -4.062813 -0.000000 0.000000
RightFoot -4.715468 -29.470930 4.356782
RightToeBase 13.669940 -0.000000 -0.000000
4090
root -5.353921 35.282986 -9.857977 -0.435820 -3.649356 -5.752861
Spine -3.359445 -1.258971 9.971455
Head 4.148151 5.992147 -6.793094
LeftShoulder -25.054791 14.656958 4.854973
LeftArm 23.777790 -54.684183 -28.889884
LeftForeArm 32.182681 -0.000000 4.902503
LeftHand -7.350506 -0.000000 -6.650279
LeftHandThumb1 -26.253704 0.000000 33.147579
RightShoulder -10.817984 16.305587 -23.509248
RightArm -3.031529 17.351844 12.630028
RightForeArm -36.859015 0.000000 16.858132
RightHand -8.324506 -0.000000 14.621427
RightHandThumb1 -24.326973 -0.000000 -32.862282
LeftUpLeg 9.996989 12.402361 6.411038
LeftLeg -8.819253 -0.000000 0.000000
LeftFoot -15.330638 28.124447 -8.389239
LeftToeBase 22.468128 -0.000000 -0.000000
RightUpLeg 6.998144 -4.557023 4.207293
RightLeg -4.086851 -0.000000 0.000000
RightFoot -4.702016 -29.476872 4.366554
RightToeBase 13.628008 -0.000000 -0.000000
4091
root -5.353796 35.282390 -9.857266 -0.435997 -3.649682 -5.755809
Spine -3.342235 -1.257017 9.959460
Head 4.147248 6.000650 -6.746990
LeftShoulder -25.091716 14.667715 4.832813
LeftArm 23.784027 -54.628052 -28.833868
LeftForeArm 32.130862 -0.000000 4.881444
LeftHand -7.343937 0.000000 -6.631122
LeftHandThumb1 -26.253704 0.000000 33.147579
RightShoulder -10.804713 16.306314 -23.506296
RightArm -3.018473 17.372975 12.643082
RightForeArm -36.875697 0.000000 16.817859
RightHand -8.360480 0.000000 14.455893
RightHandThumb1 -24.326973 -0.000000 -32.862282
LeftUpLeg 9.994251 12.411231 6.415155
LeftLeg -8.810714 -0.000000 0.000000
LeftFoot -15.338971 28.125271 -8.362814
LeftToeBase 22.479217 -0.000000 -0.000000
RightUpLeg 7.002130 -4.558590 4.209499
RightLeg -4.091843 -0.000000 0.000000
RightFoot -4.708128 -29.469505 4.358208
RightToeBase 13.640587 -0.000000 -0.000000
4092
root -5.353643 35.282238 -9.857156 -0.442521 -3.643496 -5.750528
Spine -3.326218 -1.243517 9.937471
Head 4.175928 6.010195 -6.701769
LeftShoulder -25.082021 14.717211 4.801614
LeftArm 23.787509 -54.671056 -28.794444
LeftForeArm 32.106148 0.000000 4.855995
LeftHand -7.162066 0.000000 -6.619161
LeftHandThumb1 -26.253704 0.000000 33.147579
RightShoulder -10.784245 16.266799 -23.478974
RightArm -3.045680 17.419395 12.606640
RightForeArm -36.936842 -0.000000 16.833961
RightHand -8.284148 -0.000000 14.486281
RightHandThumb1 -24.326973 -0.000000 -32.862282
LeftUpLeg 9.997533 12.412198 6.410743
LeftLeg -8.807034 -0.000000 0.000000
LeftFoot -15.331683 28.122014 -8.353800
LeftToeBase 22.482541 -0.000000 -0.000000
RightUpLeg 7.015250 -4.571622 4.203696
RightLeg -4.104569 -0.000000 0.000000
RightFoot -4.697956 -29.482841 4.288490
RightToeBase 13.779903 -0.000000 -0.000000
4093
root -5.357352 35.281922 -9.860037 -0.445779 -3.587763 -5.739976
Spine -3.300733 -1.283842 9.888915
Head 4.167038 6.034722 -6.626008
LeftShoulder -25.094270 14.710210 4.807693
LeftArm 23.795322 -54.666721 -28.767133
LeftForeArm 32.111101 -0.000000 4.862569
LeftHand -7.182808 -0.000000 -6.587671
LeftHandThumb1 -26.253704 0.000000 33.147579
RightShoulder -10.791808 16.255714 -23.462058
RightArm -3.056609 17.438917 12.620443
RightForeArm -36.940491 -0.000000 16.871457
RightHand -8.296849 0.000000 14.544467
RightHandThumb1 -24.326973 -0.000000 -32.862282
LeftUpLeg 9.971045 12.328791 6.400451
LeftLeg -8.783973 -0.000000 0.000000
LeftFoot -15.348249 28.139213 -8.369011
LeftToeBase 22.504155 -0.000000 -0.000000
RightUpLeg 7.025076 -4.616020 4.200505
RightLeg -4.121933 -0.000000 0.000000
RightFoot -4.697137 -29.494780 4.323423
RightToeBase 13.660414 -0.000000 -0.000000
